<svg xmlns="http://www.w3.org/2000/svg" width="25" height="34" fill="none" viewBox="0 0 25 34"><g filter="url(#a)"><path fill="#fff" d="m9 13 7-7v14l-7-7Z"/><path fill="#B9B9B9" d="m9 13-.35-.35-.36.35.36.35L9 13Zm7-7h.5V4.8l-.85.85L16 6Zm0 14-.35.35.85.86V20H16Zm-6.65-6.65 7-7-.7-.7-7 7 .7.7ZM15.5 6v14h1V6h-1Zm.85 13.65-7-7-.7.7 7 7 .7-.7Z"/></g><defs><filter id="a" width="24.21" height="32.41" x=".29" y=".79" color-interpolation-filters="sRGB" filterUnits="userSpaceOnUse"><feFlood flood-opacity="0" result="BackgroundImageFix"/><feColorMatrix in="SourceAlpha" result="hardAlpha" values="0 0 0 0 0 0 0 0 0 0 0 0 0 0 0 0 0 0 127 0"/><feOffset dy="4"/><feGaussianBlur stdDeviation="4"/><feColorMatrix values="0 0 0 0 0.7625 0 0 0 0 0.7625 0 0 0 0 0.7625 0 0 0 0.2 0"/><feBlend in2="BackgroundImageFix" result="effect1_dropShadow_884_2844"/><feBlend in="SourceGraphic" in2="effect1_dropShadow_884_2844" result="shape"/></filter></defs></svg>